<svg xmlns="http://www.w3.org/2000/svg" viewBox="0 0 60 40">
  <rect width="60" height="40" fill="#003399"/>
  <g fill="#FFCC00">
    <path d="M30.00,8.60 L29.56,9.89 L28.19,9.91 L29.29,10.73 L28.88,12.04 L30.00,11.25 L31.12,12.04 L30.71,10.73 L31.81,9.91 L30.44,9.89 Z"/> <path d="M34.75,9.87 L34.31,11.17 L32.94,11.19 L34.04,12.00 L33.63,13.31 L34.75,12.52 L35.87,13.31 L35.46,12.00 L36.56,11.19 L35.19,11.17 Z"/> <path d="M38.23,13.35 L37.79,14.64 L36.42,14.66 L37.51,15.48 L37.11,16.79 L38.23,16.00 L39.34,16.79 L38.94,15.48 L40.03,14.66 L38.67,14.64 Z"/> <path d="M39.50,18.10 L39.06,19.39 L37.69,19.41 L38.79,20.23 L38.38,21.54 L39.50,20.75 L40.62,21.54 L40.21,20.23 L41.31,19.41 L39.94,19.39 Z"/> <path d="M38.23,22.85 L37.79,24.14 L36.42,24.16 L37.51,24.98 L37.11,26.29 L38.23,25.50 L39.34,26.29 L38.94,24.98 L40.03,24.16 L38.67,24.14 Z"/> <path d="M34.75,26.33 L34.31,27.62 L32.94,27.64 L34.04,28.46 L33.63,29.76 L34.75,28.98 L35.87,29.76 L35.46,28.46 L36.56,27.64 L35.19,27.62 Z"/> <path d="M30.00,27.60 L29.56,28.89 L28.19,28.91 L29.29,29.73 L28.88,31.04 L30.00,30.25 L31.12,31.04 L30.71,29.73 L31.81,28.91 L30.44,28.89 Z"/> <path d="M25.25,26.33 L24.81,27.62 L23.44,27.64 L24.54,28.46 L24.13,29.76 L25.25,28.98 L26.37,29.76 L25.96,28.46 L27.06,27.64 L25.69,27.62 Z"/> <path d="M21.77,22.85 L21.33,24.14 L19.97,24.16 L21.06,24.98 L20.66,26.29 L21.77,25.50 L22.89,26.29 L22.49,24.98 L23.58,24.16 L22.21,24.14 Z"/> <path d="M20.50,18.10 L20.06,19.39 L18.69,19.41 L19.79,20.23 L19.38,21.54 L20.50,20.75 L21.62,21.54 L21.21,20.23 L22.31,19.41 L20.94,19.39 Z"/> <path d="M21.77,13.35 L21.33,14.64 L19.97,14.66 L21.06,15.48 L20.66,16.79 L21.77,16.00 L22.89,16.79 L22.49,15.48 L23.58,14.66 L22.21,14.64 Z"/> <path d="M25.25,9.87 L24.81,11.17 L23.44,11.19 L24.54,12.00 L24.13,13.31 L25.25,12.52 L26.37,13.31 L25.96,12.00 L27.06,11.19 L25.69,11.17 Z"/>
  </g>
</svg>
